<svg width="24" height="24" viewBox="0 0 24 24" fill="none" xmlns="http://www.w3.org/2000/svg">
<path d="M12 22.6648C11.6583 22.6648 11.3289 22.541 11.0722 22.3162C10.1026 21.4684 9.16789 20.6717 8.34318 19.969L8.33897 19.9653C5.92107 17.9048 3.83312 16.1254 2.38037 14.3725C0.756407 12.4129 0 10.555 0 8.52523C0 6.55318 0.676207 4.73385 1.90393 3.40212C3.1463 2.05465 4.851 1.31252 6.70458 1.31252C8.08995 1.31252 9.35869 1.75051 10.4754 2.61422C11.039 3.05019 11.5499 3.58376 12 4.20614C12.4502 3.58376 12.9609 3.05019 13.5247 2.61422C14.6415 1.75051 15.9102 1.31252 17.2956 1.31252C19.149 1.31252 20.8538 2.05465 22.0962 3.40212C23.3239 4.73385 24 6.55318 24 8.52523C24 10.555 23.2437 12.4129 21.6198 14.3723C20.167 16.1254 18.0793 17.9046 15.6617 19.9649C14.8355 20.6688 13.8993 21.4668 12.9276 22.3166C12.6711 22.541 12.3415 22.6648 12 22.6648ZM6.70458 2.71841C5.24834 2.71841 3.91058 3.29958 2.93737 4.355C1.9497 5.42635 1.4057 6.90731 1.4057 8.52523C1.4057 10.2323 2.04016 11.7591 3.4627 13.4755C4.83764 15.1346 6.88274 16.8774 9.25065 18.8954L9.25505 18.8991C10.0829 19.6046 11.0213 20.4044 11.998 21.2584C12.9805 20.4027 13.9204 19.6016 14.7499 18.895C17.1176 16.877 19.1625 15.1346 20.5374 13.4755C21.9598 11.7591 22.5943 10.2323 22.5943 8.52523C22.5943 6.90731 22.0503 5.42635 21.0626 4.355C20.0896 3.29958 18.7516 2.71841 17.2956 2.71841C16.2288 2.71841 15.2494 3.05752 14.3846 3.72622C13.6139 4.32241 13.077 5.07607 12.7622 5.60342C12.6004 5.8746 12.3155 6.03646 12 6.03646C11.6845 6.03646 11.3996 5.8746 11.2377 5.60342C10.9231 5.07607 10.3863 4.32241 9.6154 3.72622C8.75059 3.05752 7.77116 2.71841 6.70458 2.71841Z" fill="black"/>
</svg>
