<svg width="26" height="26" viewBox="0 0 26 26" fill="none" xmlns="http://www.w3.org/2000/svg">
<g clip-path="url(#clip0)">
<path d="M23.5879 15.2903L25.4414 6.25119H7.17539L6.54063 3.24494L1.03594 0.558617L0.558594 1.50823L5.58594 3.93557L8.125 16.0621H22.8008C22.8008 16.0621 24.248 16.9711 23.6895 18.1188C23.4406 18.4742 23.0547 18.911 22.3641 18.911H7.75938V19.9571H22.3691C23.3746 19.9571 24.2227 19.4289 24.7 18.586C25.6344 16.8391 23.5879 15.2903 23.5879 15.2903ZM9.02891 15.0008L7.38867 7.30237H24.1719L22.5824 15.0008H9.02891Z" fill="black"/>
<path d="M10.7758 21.4349C9.66372 21.4349 8.76489 22.3286 8.76489 23.4357C8.76489 24.5427 9.66372 25.4365 10.7758 25.4365C11.8879 25.4365 12.7868 24.5427 12.7868 23.4357C12.7868 22.3286 11.8879 21.4349 10.7758 21.4349ZM10.7758 24.3853C10.2477 24.3853 9.82114 23.9638 9.82114 23.4357C9.82114 22.9075 10.2426 22.4861 10.7758 22.4861C11.309 22.4861 11.7305 22.9075 11.7305 23.4357C11.7305 23.9638 11.304 24.3853 10.7758 24.3853Z" fill="black"/>
<path d="M21.577 21.4349C20.4649 21.4349 19.566 22.3286 19.566 23.4357C19.566 24.5427 20.4649 25.4415 21.577 25.4415C22.6891 25.4415 23.6438 24.5478 23.5879 23.4407C23.5879 22.3337 22.6891 21.4349 21.577 21.4349ZM22.5317 23.4407C22.5317 23.9689 22.1102 24.3904 21.577 24.3904C21.0438 24.3904 20.6223 23.9689 20.6223 23.4407C20.6223 22.9126 21.0438 22.4911 21.577 22.4911C22.1102 22.4911 22.5825 22.9126 22.5317 23.4407Z" fill="black"/>
</g>
<defs>
<clipPath id="clip0">
<rect width="26" height="26" fill="white"/>
</clipPath>
</defs>
</svg>
