<svg width="34" height="34" viewBox="0 0 34 34" fill="none" xmlns="http://www.w3.org/2000/svg">
<circle cx="17" cy="17" r="17" fill="white"/>
<path d="M17.3656 22.1012V10.2746H21.9324C21.9324 10.2746 19.4539 17.0422 19.4996 17.1406C19.6438 18.6207 20.9305 19.7562 22.4598 19.7562C23.9855 19.7562 25.2336 18.6242 25.4129 17.1477C25.4621 17.0457 22.9836 10.2746 22.9836 10.2746H23.409V9.51875H17.3621V8.38672H16.6273V9.51875H10.5805V10.2746H11.0094C11.0094 10.2746 8.5625 16.9227 8.5625 17C8.63633 18.5504 9.95469 19.7562 11.5297 19.7562C13.1047 19.7562 14.4266 18.5469 14.5355 17C14.5355 16.9543 12.057 10.2746 12.057 10.2746H16.6238V22.0977H8.38672V25.6133H25.6133V22.1012H17.3656ZM22.4598 19.0039C21.398 19.0039 20.5156 18.2867 20.259 17.341H24.657C24.4039 18.2832 23.525 19.0039 22.4598 19.0039ZM20.3363 16.6238L22.4633 10.9566L24.5516 16.6238H20.3363ZM11.5402 19.0039C10.4785 19.0039 9.59609 18.2867 9.33945 17.341H13.7375C13.4809 18.2832 12.602 19.0039 11.5402 19.0039ZM9.44844 16.6238L11.5754 10.9566L13.6637 16.6238H9.44844ZM24.9172 24.8961H9.12148V22.857H24.9172V24.8961Z" fill="black"/>
</svg>
