<svg width="38" height="38" viewBox="0 0 38 38" fill="none" xmlns="http://www.w3.org/2000/svg">
<rect width="38" height="38" rx="19" fill="#FC9D9D"/>
<g clip-path="url(#clip0)">
<path d="M27.674 28.3426L26.1539 13.8671C26.122 13.564 25.8666 13.3339 25.5619 13.3339H22.7048V12.6825C22.7048 10.6521 21.0528 9 19.0223 9C16.9917 9 15.3396 10.6521 15.3396 12.6825V13.3339H12.4825C12.1778 13.3339 11.9224 13.564 11.8905 13.8671L10.3704 28.3426C10.3529 28.5103 10.4073 28.6777 10.5201 28.8031C10.633 28.9284 10.7939 29 10.9625 29H27.0818C27.2506 29 27.4114 28.9284 27.5242 28.8031C27.6372 28.6777 27.6916 28.5103 27.674 28.3426ZM16.5301 12.6825C16.5301 11.3085 17.6481 10.1905 19.0223 10.1905C20.3963 10.1905 21.5144 11.3085 21.5144 12.6825V13.3339H16.5301V12.6825ZM11.6235 27.8095L13.0186 14.5244H15.3396V15.8362C15.3396 16.1649 15.6062 16.4315 15.9348 16.4315C16.2635 16.4315 16.5301 16.1649 16.5301 15.8362V14.5244H21.5144V15.8362C21.5144 16.1649 21.7809 16.4315 22.1096 16.4315C22.4383 16.4315 22.7048 16.1649 22.7048 15.8362V14.5244H25.0259L26.421 27.8095H11.6235Z" fill="white"/>
</g>
<defs>
<clipPath id="clip0">
<rect width="20" height="20" fill="white" transform="translate(9 9)"/>
</clipPath>
</defs>
</svg>
