<svg width="25" height="25" viewBox="0 0 25 25" fill="none" xmlns="http://www.w3.org/2000/svg">
<g clip-path="url(#clip0)">
<path d="M13.0078 19.585V3.1592H19.3506C19.3506 3.1592 15.9082 12.5586 15.9717 12.6953C16.1719 14.751 17.959 16.3281 20.083 16.3281C22.2021 16.3281 23.9355 14.7559 24.1846 12.7051C24.2529 12.5635 20.8105 3.1592 20.8105 3.1592H21.4014V2.1094H13.0029V0.537132H11.9824V2.1094H3.58398V3.1592H4.17969C4.17969 3.1592 0.78125 12.3926 0.78125 12.5C0.883789 14.6533 2.71484 16.3281 4.90234 16.3281C7.08984 16.3281 8.92578 14.6485 9.07715 12.5C9.07715 12.4365 5.63477 3.1592 5.63477 3.1592H11.9775V19.5801H0.537109V24.4629H24.4629V19.585H13.0078ZM20.083 15.2832C18.6084 15.2832 17.3828 14.2871 17.0264 12.9737H23.1348C22.7832 14.2823 21.5625 15.2832 20.083 15.2832ZM17.1338 11.9776L20.0879 4.10647L22.9883 11.9776H17.1338ZM4.91699 15.2832C3.44238 15.2832 2.2168 14.2871 1.86035 12.9737H7.96875C7.6123 14.2823 6.3916 15.2832 4.91699 15.2832ZM2.01172 11.9776L4.96582 4.10647L7.86621 11.9776H2.01172ZM23.4961 23.4668H1.55762V20.6348H23.4961V23.4668Z" fill="black"/>
</g>
<defs>
<clipPath id="clip0">
<rect width="25" height="25" fill="white"/>
</clipPath>
</defs>
</svg>
