<svg width="34" height="34" viewBox="0 0 34 34" fill="none" xmlns="http://www.w3.org/2000/svg">
<circle cx="17" cy="17" r="17" fill="white"/>
<path d="M17 24.9986C16.7437 24.9986 16.4967 24.9058 16.3042 24.7371C15.577 24.1013 14.8759 23.5038 14.2574 22.9767L14.2542 22.974C12.4408 21.4286 10.8748 20.094 9.78528 18.7794C8.56731 17.3097 8 15.9162 8 14.3939C8 12.9149 8.50716 11.5504 9.42795 10.5516C10.3597 9.54097 11.6383 8.98438 13.0284 8.98438C14.0675 8.98438 15.019 9.31287 15.8566 9.96065C16.2793 10.2876 16.6624 10.6878 17 11.1546C17.3377 10.6878 17.7207 10.2876 18.1435 9.96065C18.9811 9.31287 19.9327 8.98438 20.9717 8.98438C22.3617 8.98438 23.6404 9.54097 24.5722 10.5516C25.493 11.5504 26 12.9149 26 14.3939C26 15.9162 25.4328 17.3097 24.2149 18.7792C23.1253 20.094 21.5595 21.4285 19.7463 22.9737C19.1267 23.5016 18.4245 24.1001 17.6957 24.7374C17.5033 24.9058 17.2561 24.9986 17 24.9986ZM13.0284 10.0388C11.9363 10.0388 10.9329 10.4747 10.203 11.2662C9.46228 12.0697 9.05428 13.1805 9.05428 14.3939C9.05428 15.6742 9.53012 16.8193 10.597 18.1066C11.6282 19.3509 13.1621 20.658 14.938 22.1715L14.9413 22.1743C15.5622 22.7034 16.266 23.3033 16.9985 23.9438C17.7354 23.302 18.4403 22.7012 19.0624 22.1713C20.8382 20.6578 22.3719 19.3509 23.4031 18.1066C24.4699 16.8193 24.9457 15.6742 24.9457 14.3939C24.9457 13.1805 24.5377 12.0697 23.797 11.2662C23.0672 10.4747 22.0637 10.0388 20.9717 10.0388C20.1716 10.0388 19.437 10.2931 18.7884 10.7946C18.2104 11.2418 17.8078 11.807 17.5717 12.2025C17.4503 12.4059 17.2366 12.5273 17 12.5273C16.7634 12.5273 16.5497 12.4059 16.4283 12.2025C16.1924 11.807 15.7897 11.2418 15.2116 10.7946C14.563 10.2931 13.8284 10.0388 13.0284 10.0388Z" fill="black"/>
</svg>
