<svg width="34" height="34" viewBox="0 0 34 34" fill="none" xmlns="http://www.w3.org/2000/svg">
<circle cx="17" cy="17" r="17" fill="white"/>
<path d="M25.0192 17.2755L25.1879 17L25.0192 16.7244C24.9909 16.6784 24.3119 15.5825 22.9929 14.4843C21.2385 13.0238 19.1717 12.2517 17.0158 12.2517C14.8604 12.2517 12.7885 13.0234 11.0241 14.4832C9.69749 15.5808 9.01085 16.6759 8.98228 16.722L8.80994 17L8.98228 17.278C9.01085 17.3241 9.69749 18.4192 11.0241 19.5168C12.7885 20.9766 14.8604 21.7483 17.0158 21.7483C19.1717 21.7483 21.2385 20.9762 22.9929 19.5157C24.3119 18.4175 24.9909 17.3216 25.0192 17.2755ZM22.29 18.7283C20.7118 20.0324 18.9373 20.6935 17.0158 20.6935C15.0936 20.6935 13.3132 20.032 11.7243 18.7271C10.9026 18.0522 10.3454 17.3689 10.0725 17C10.3456 16.6309 10.9027 15.9476 11.7243 15.2728C13.3132 13.968 15.0934 13.3064 17.0158 13.3064C18.9373 13.3064 20.7117 13.9676 22.29 15.2716C23.1081 15.9475 23.6604 16.6318 23.9296 17C23.6602 17.3683 23.108 18.0526 22.29 18.7283Z" fill="black"/>
<path d="M17 13.8313C15.2528 13.8313 13.8313 15.2528 13.8313 17C13.8313 18.7473 15.2528 20.1688 17 20.1688C18.7473 20.1688 20.1688 18.7473 20.1688 17C20.1688 15.2528 18.7473 13.8313 17 13.8313ZM17 19.1141C15.8344 19.1141 14.886 18.1657 14.886 17C14.886 15.8344 15.8344 14.886 17 14.886C18.1657 14.886 19.1141 15.8344 19.1141 17C19.1141 18.1657 18.1657 19.1141 17 19.1141Z" fill="black"/>
<path d="M9.05469 9.05469H11.2563V8H8V11.2168H9.05469V9.05469Z" fill="black"/>
<path d="M22.7437 8V9.05469H24.9453V11.2168H26V8H22.7437Z" fill="black"/>
<path d="M9.05469 22.7832H8V26H11.2563V24.9453H9.05469V22.7832Z" fill="black"/>
<path d="M24.9453 24.9453H22.7437V26H26V22.7832H24.9453V24.9453Z" fill="black"/>
</svg>
